<svg width="184" height="30" viewBox="0 0 184 30" fill="none" xmlns="http://www.w3.org/2000/svg">
<mask id="path-1-inside-1_101_2" fill="white">
<path fill-rule="evenodd" clip-rule="evenodd" d="M0 5C0 2.23858 2.23858 0 5 0H150.326C151.193 0 152.046 0.225625 152.8 0.654712L168.542 9.61617C170.08 7.42914 172.623 6 175.5 6C180.194 6 184 9.80558 184 14.5C184 19.1944 180.194 23 175.5 23C172.939 23 170.642 21.8673 169.084 20.0755L152.8 29.3453C152.046 29.7744 151.193 30 150.326 30H5C2.23858 30 0 27.7614 0 25V21.9836C3.90902 21.7263 7 18.4741 7 14.5C7 10.5259 3.90902 7.2737 0 7.0164V5Z"/>
</mask>
<path fill-rule="evenodd" clip-rule="evenodd" d="M0 5C0 2.23858 2.23858 0 5 0H150.326C151.193 0 152.046 0.225625 152.8 0.654712L168.542 9.61617C170.08 7.42914 172.623 6 175.5 6C180.194 6 184 9.80558 184 14.5C184 19.1944 180.194 23 175.5 23C172.939 23 170.642 21.8673 169.084 20.0755L152.8 29.3453C152.046 29.7744 151.193 30 150.326 30H5C2.23858 30 0 27.7614 0 25V21.9836C3.90902 21.7263 7 18.4741 7 14.5C7 10.5259 3.90902 7.2737 0 7.0164V5Z" fill="#F9A825"/>
<path d="M152.8 0.654712L152.305 1.52377L152.305 1.52377L152.8 0.654712ZM168.542 9.61617L168.048 10.4852L168.837 10.9349L169.36 10.1914L168.542 9.61617ZM169.084 20.0755L169.838 19.4192L169.301 18.8013L168.589 19.2064L169.084 20.0755ZM152.8 29.3453L152.305 28.4762L152.305 28.4762L152.8 29.3453ZM0 21.9836L-0.0656785 20.9858L-1 21.0473V21.9836H0ZM0 7.0164H-1V7.95275L-0.0656783 8.01424L0 7.0164ZM5 -1C1.68629 -1 -1 1.68629 -1 5H1C1 2.79086 2.79086 1 5 1V-1ZM150.326 -1H5V1H150.326V-1ZM153.294 -0.214343C152.39 -0.729251 151.367 -1 150.326 -1V1C151.02 1 151.702 1.1805 152.305 1.52377L153.294 -0.214343ZM169.037 8.74711L153.294 -0.214345L152.305 1.52377L168.048 10.4852L169.037 8.74711ZM169.36 10.1914C170.719 8.25924 172.962 7 175.5 7V5C172.284 5 169.441 6.59903 167.724 9.04094L169.36 10.1914ZM175.5 7C179.642 7 183 10.3579 183 14.5H185C185 9.25329 180.747 5 175.5 5V7ZM183 14.5C183 18.6421 179.642 22 175.5 22V24C180.747 24 185 19.7467 185 14.5H183ZM175.5 22C173.24 22 171.215 21.002 169.838 19.4192L168.329 20.7317C170.07 22.7326 172.637 24 175.5 24V22ZM153.294 30.2143L169.579 20.9445L168.589 19.2064L152.305 28.4762L153.294 30.2143ZM150.326 31C151.367 31 152.39 30.7293 153.294 30.2143L152.305 28.4762C151.702 28.8195 151.02 29 150.326 29V31ZM5 31H150.326V29H5V31ZM-1 25C-1 28.3137 1.6863 31 5 31V29C2.79086 29 1 27.2091 1 25H-1ZM-1 21.9836V25H1V21.9836H-1ZM6 14.5C6 17.9438 3.32118 20.7628 -0.0656785 20.9858L0.0656785 22.9814C4.49686 22.6898 8 19.0044 8 14.5H6ZM-0.0656783 8.01424C3.32118 8.23717 6 11.0562 6 14.5H8C8 9.9956 4.49686 6.31022 0.0656783 6.01856L-0.0656783 8.01424ZM-1 5V7.0164H1V5H-1Z" fill="#895E18" mask="url(#path-1-inside-1_101_2)"/>
</svg>
