<?xml version="1.0" encoding="UTF-8"?><svg id="_イヤー_2" xmlns="http://www.w3.org/2000/svg" xmlns:xlink="http://www.w3.org/1999/xlink" viewBox="0 0 1297.11 218.18"><defs><style>.cls-1{fill:none;}.cls-2{fill:#f90;}.cls-3{fill:#cb8115;}.cls-4{fill:url(#_規パターンスウォッチ_9);fill-rule:evenodd;stroke:#ab6300;stroke-miterlimit:10;stroke-width:8px;}</style><pattern id="_規パターンスウォッチ_9" x="0" y="0" width="42.2" height="42.23" patternTransform="translate(-2271.45 -14271.1) rotate(-90)" patternUnits="userSpaceOnUse" viewBox="0 0 42.2 42.23"><g><rect class="cls-1" y="0" width="42.2" height="42.23"/><rect class="cls-2" x="0" y="0" width="42.2" height="42.2"/><g><rect class="cls-3" x="39.85" y="39.85" width="2.25" height="2.25"/><rect class="cls-3" x="38.26" y="38.26" width="2.25" height="2.25"/><rect class="cls-3" x="36.67" y="36.67" width="2.25" height="2.25"/><rect class="cls-3" x="35.08" y="35.08" width="2.25" height="2.25"/><rect class="cls-3" x="33.49" y="33.49" width="2.25" height="2.25"/><rect class="cls-3" x="31.89" y="31.89" width="2.25" height="2.25"/><rect class="cls-3" x="30.3" y="30.3" width="2.25" height="2.25"/><rect class="cls-3" x="28.71" y="28.71" width="2.25" height="2.25"/><rect class="cls-3" x="27.12" y="27.12" width="2.25" height="2.25"/><rect class="cls-3" x="25.53" y="25.53" width="2.25" height="2.25"/><rect class="cls-3" x="23.94" y="23.94" width="2.25" height="2.25"/><rect class="cls-3" x="22.35" y="22.35" width="2.25" height="2.25"/><rect class="cls-3" x="20.76" y="20.76" width="2.25" height="2.25"/><rect class="cls-3" x="19.17" y="19.17" width="2.25" height="2.25"/><rect class="cls-3" x="17.58" y="17.58" width="2.25" height="2.25"/><rect class="cls-3" x="15.98" y="15.98" width="2.25" height="2.25"/><rect class="cls-3" x="14.39" y="14.39" width="2.25" height="2.25"/><rect class="cls-3" x="12.8" y="12.8" width="2.25" height="2.25"/><rect class="cls-3" x="11.21" y="11.21" width="2.25" height="2.25"/><rect class="cls-3" x="9.62" y="9.62" width="2.25" height="2.25"/><rect class="cls-3" x="8.03" y="8.03" width="2.25" height="2.25"/><rect class="cls-3" x="6.44" y="6.44" width="2.25" height="2.25"/><rect class="cls-3" x="4.85" y="4.85" width="2.25" height="2.25"/><rect class="cls-3" x="3.26" y="3.26" width="2.25" height="2.25"/><rect class="cls-3" x="1.67" y="1.67" width="2.25" height="2.25"/><rect class="cls-3" x=".08" y=".08" width="2.25" height="2.25"/></g><g><rect class="cls-3" x="39.87" y=".21" width="2.25" height="2.25"/><rect class="cls-3" x="38.27" y="1.8" width="2.25" height="2.25"/><rect class="cls-3" x="36.68" y="3.39" width="2.25" height="2.25"/><rect class="cls-3" x="35.09" y="4.98" width="2.25" height="2.25"/><rect class="cls-3" x="33.5" y="6.57" width="2.25" height="2.25"/><rect class="cls-3" x="31.91" y="8.16" width="2.25" height="2.25"/><rect class="cls-3" x="30.32" y="9.75" width="2.25" height="2.25"/><rect class="cls-3" x="28.73" y="11.34" width="2.25" height="2.25"/><rect class="cls-3" x="27.14" y="12.94" width="2.25" height="2.25"/><rect class="cls-3" x="25.55" y="14.53" width="2.25" height="2.25"/><rect class="cls-3" x="23.96" y="16.12" width="2.25" height="2.25"/><rect class="cls-3" x="22.36" y="17.71" width="2.25" height="2.25"/><rect class="cls-3" x="20.77" y="19.3" width="2.25" height="2.25"/><rect class="cls-3" x="19.18" y="20.89" width="2.25" height="2.25"/><rect class="cls-3" x="17.59" y="22.48" width="2.25" height="2.25"/><rect class="cls-3" x="16" y="24.07" width="2.25" height="2.25"/><rect class="cls-3" x="14.41" y="25.66" width="2.25" height="2.25"/><rect class="cls-3" x="12.82" y="27.25" width="2.25" height="2.25"/><rect class="cls-3" x="11.23" y="28.85" width="2.25" height="2.25"/><rect class="cls-3" x="9.64" y="30.44" width="2.25" height="2.25"/><rect class="cls-3" x="8.05" y="32.03" width="2.25" height="2.25"/><rect class="cls-3" x="6.45" y="33.62" width="2.25" height="2.25"/><rect class="cls-3" x="4.86" y="35.21" width="2.25" height="2.25"/><rect class="cls-3" x="3.27" y="36.8" width="2.25" height="2.25"/><rect class="cls-3" x="1.68" y="38.39" width="2.25" height="2.25"/><rect class="cls-3" x=".09" y="39.98" width="2.25" height="2.25"/></g></g></pattern></defs><g id="_イヤー_1-2"><path class="cls-4" d="M38.78,4h1018.48c6.03,0,11.96,1.57,17.21,4.55l110.35,62.82c12.95-18.41,36.06-29.16,61.18-24.08,23.17,4.69,41.6,23.4,46.01,46.62,7.21,38.01-21.74,71.22-58.44,71.22-17.94,0-34.03-7.94-44.95-20.49l-114.15,64.98c-5.24,2.98-11.17,4.55-17.21,4.55H38.78c-19.21,0-34.78-15.57-34.78-34.78v-21.38c27.39-1.8,49.04-24.59,49.04-52.43S31.39,54.96,4,53.16v-14.38C4,19.57,19.57,4,38.78,4Z"/></g></svg>