<?xml version="1.0" encoding="UTF-8"?><svg id="_イヤー_2" xmlns="http://www.w3.org/2000/svg" xmlns:xlink="http://www.w3.org/1999/xlink" viewBox="0 0 1291.6 217.28"><defs><style>.cls-1,.cls-2{fill:none;}.cls-2{stroke:#dd4838;stroke-width:3px;}.cls-2,.cls-3{stroke-miterlimit:10;}.cls-4{fill:#ff7d59;}.cls-3{fill:url(#_規パターンスウォッチ_13);fill-rule:evenodd;stroke:#c10100;stroke-width:8px;}</style><pattern id="_規パターンスウォッチ_13" x="0" y="0" width="43" height="43" patternTransform="translate(630.29 -6982.83) rotate(-45)" patternUnits="userSpaceOnUse" viewBox="0 0 43 43"><g><rect class="cls-1" width="43" height="43"/><rect class="cls-4" width="43" height="43"/><circle class="cls-2" cx="21.5" cy="21.5" r="7"/></g></pattern></defs><g id="_イヤー_1-2"><path class="cls-3" d="M38.63,4h1014.12c6.01,0,11.91,1.56,17.13,4.54l109.88,62.55c12.89-18.33,35.9-29.03,60.92-23.97,23.07,4.67,41.42,23.3,45.81,46.42,7.18,37.85-21.64,70.92-58.19,70.92-17.87,0-33.89-7.9-44.76-20.4l-113.66,64.7c-5.22,2.97-11.13,4.53-17.13,4.53H38.63c-19.13,0-34.63-15.51-34.63-34.63v-21.29c27.27-1.79,48.83-24.48,48.83-52.21S31.27,54.74,4,52.95v-14.31C4,19.51,19.51,4,38.63,4Z"/></g></svg>