<svg width="131" height="90" viewBox="0 0 131 90" fill="none" xmlns="http://www.w3.org/2000/svg">
<mask id="path-1-inside-1_227_22" fill="white">
<path fill-rule="evenodd" clip-rule="evenodd" d="M38 59.994V84.979C38 89.102 42.7094 91.4531 46.0048 88.9754L84.55 59.994H119C121.761 59.994 124 57.7555 124 54.994V52.8624C127.979 52.154 131 48.6769 131 44.4943C131 40.3118 127.979 36.8347 124 36.1263V34.994C124 32.2326 121.761 29.994 119 29.994H84.55L46.0048 1.0127C42.7094 -1.46506 38 0.886088 38 5.00908V29.994H5C2.23858 29.994 0 32.2326 0 34.994V37.0107C3.90902 37.268 7 40.5202 7 44.4943C7 48.4685 3.90902 51.7206 0 51.9779V54.994C0 57.7555 2.23858 59.994 5 59.994H38Z"/>
</mask>
<path fill-rule="evenodd" clip-rule="evenodd" d="M38 59.994V84.979C38 89.102 42.7094 91.4531 46.0048 88.9754L84.55 59.994H119C121.761 59.994 124 57.7555 124 54.994V52.8624C127.979 52.154 131 48.6769 131 44.4943C131 40.3118 127.979 36.8347 124 36.1263V34.994C124 32.2326 121.761 29.994 119 29.994H84.55L46.0048 1.0127C42.7094 -1.46506 38 0.886088 38 5.00908V29.994H5C2.23858 29.994 0 32.2326 0 34.994V37.0107C3.90902 37.268 7 40.5202 7 44.4943C7 48.4685 3.90902 51.7206 0 51.9779V54.994C0 57.7555 2.23858 59.994 5 59.994H38Z" fill="#69F0AE"/>
<path d="M38 59.994H39V58.994H38V59.994ZM46.0048 88.9754L46.6058 89.7747L46.0048 88.9754ZM84.55 59.994V58.994H84.216L83.949 59.1948L84.55 59.994ZM124 52.8624L123.825 51.8779L123 52.0247V52.8624H124ZM124 36.1263H123V36.964L123.825 37.1108L124 36.1263ZM84.55 29.994L83.949 30.7933L84.216 30.994H84.55V29.994ZM46.0048 1.0127L46.6058 0.213423L46.6058 0.213423L46.0048 1.0127ZM38 29.994V30.994H39V29.994H38ZM0 37.0107H-1V37.9471L-0.0656785 38.0086L0 37.0107ZM0 51.9779L-0.0656785 50.9801L-1 51.0416V51.9779H0ZM39 84.979V59.994H37V84.979H39ZM45.4038 88.1761C42.7675 90.1583 39 88.2774 39 84.979H37C37 89.9266 42.6513 92.748 46.6058 89.7747L45.4038 88.1761ZM83.949 59.1948L45.4038 88.1761L46.6058 89.7747L85.151 60.7933L83.949 59.1948ZM119 58.994H84.55V60.994H119V58.994ZM123 54.994C123 57.2032 121.209 58.994 119 58.994V60.994C122.314 60.994 125 58.3077 125 54.994H123ZM123 52.8624V54.994H125V52.8624H123ZM130 44.4943C130 48.1838 127.335 51.2529 123.825 51.8779L124.175 53.8469C128.623 53.055 132 49.1701 132 44.4943H130ZM123.825 37.1108C127.335 37.7358 130 40.8049 130 44.4943H132C132 39.8186 128.623 35.9337 124.175 35.1418L123.825 37.1108ZM123 34.994V36.1263H125V34.994H123ZM119 30.994C121.209 30.994 123 32.7849 123 34.994H125C125 31.6803 122.314 28.994 119 28.994V30.994ZM84.55 30.994H119V28.994H84.55V30.994ZM45.4039 1.81198L83.949 30.7933L85.1509 29.1948L46.6058 0.213423L45.4039 1.81198ZM39 5.00908C39 1.71069 42.7675 -0.170232 45.4039 1.81198L46.6058 0.213423C42.6513 -2.75989 37 0.0614827 37 5.00908H39ZM39 29.994V5.00908H37V29.994H39ZM5 30.994H38V28.994H5V30.994ZM1 34.994C1 32.7849 2.79086 30.994 5 30.994V28.994C1.68629 28.994 -1 31.6803 -1 34.994H1ZM1 37.0107V34.994H-1V37.0107H1ZM8 44.4943C8 39.9899 4.49686 36.3046 0.0656785 36.0129L-0.0656785 38.0086C3.32118 38.2315 6 41.0505 6 44.4943H8ZM0.0656785 52.9758C4.49686 52.6841 8 48.9987 8 44.4943H6C6 47.9382 3.32118 50.7572 -0.0656785 50.9801L0.0656785 52.9758ZM1 54.994V51.9779H-1V54.994H1ZM5 58.994C2.79086 58.994 1 57.2032 1 54.994H-1C-1 58.3077 1.68629 60.994 5 60.994V58.994ZM38 58.994H5V60.994H38V58.994Z" fill="#2E7D32" mask="url(#path-1-inside-1_227_22)"/>
</svg>
