<svg width="184" height="78" viewBox="0 0 184 78" fill="none" xmlns="http://www.w3.org/2000/svg">
<mask id="path-1-inside-1_10_17" fill="white">
<path fill-rule="evenodd" clip-rule="evenodd" d="M114 16C111.239 16 109 13.7614 109 11V5C109 2.23858 111.239 0 114 0H157C159.761 0 162 2.23858 162 5V11C162 13.7614 159.761 16 157 16H144V47.6539H172C174.761 47.6539 177 49.8925 177 52.6539V53.7859C180.979 54.4943 184 57.9714 184 62.1539C184 66.3365 180.979 69.8135 177 70.522V72.6539C177 75.4154 174.761 77.6539 172 77.6539H5C2.23858 77.6539 0 75.4154 0 72.6539V69.6375C3.90902 69.3802 7 66.1281 7 62.1539C7 58.1798 3.90902 54.9276 0 54.6703V52.6539C0 49.8925 2.23858 47.6539 5 47.6539H128V16H114Z"/>
</mask>
<path fill-rule="evenodd" clip-rule="evenodd" d="M114 16C111.239 16 109 13.7614 109 11V5C109 2.23858 111.239 0 114 0H157C159.761 0 162 2.23858 162 5V11C162 13.7614 159.761 16 157 16H144V47.6539H172C174.761 47.6539 177 49.8925 177 52.6539V53.7859C180.979 54.4943 184 57.9714 184 62.1539C184 66.3365 180.979 69.8135 177 70.522V72.6539C177 75.4154 174.761 77.6539 172 77.6539H5C2.23858 77.6539 0 75.4154 0 72.6539V69.6375C3.90902 69.3802 7 66.1281 7 62.1539C7 58.1798 3.90902 54.9276 0 54.6703V52.6539C0 49.8925 2.23858 47.6539 5 47.6539H128V16H114Z" fill="#FF6680"/>
<path d="M144 16V15H143V16H144ZM144 47.6539H143V48.6539H144V47.6539ZM177 53.7859H176V54.6236L176.825 54.7704L177 53.7859ZM177 70.522L176.825 69.5375L176 69.6843V70.522H177ZM0 69.6375L-0.0656785 68.6397L-1 68.7012V69.6375H0ZM0 54.6703H-1V55.6067L-0.0656785 55.6682L0 54.6703ZM128 47.6539V48.6539H129V47.6539H128ZM128 16H129V15H128V16ZM108 11C108 14.3137 110.686 17 114 17V15C111.791 15 110 13.2091 110 11H108ZM108 5V11H110V5H108ZM114 -1C110.686 -1 108 1.68629 108 5H110C110 2.79086 111.791 1 114 1V-1ZM157 -1H114V1H157V-1ZM163 5C163 1.68629 160.314 -1 157 -1V1C159.209 1 161 2.79086 161 5H163ZM163 11V5H161V11H163ZM157 17C160.314 17 163 14.3137 163 11H161C161 13.2091 159.209 15 157 15V17ZM144 17H157V15H144V17ZM145 47.6539V16H143V47.6539H145ZM144 48.6539H172V46.6539H144V48.6539ZM172 48.6539C174.209 48.6539 176 50.4448 176 52.6539H178C178 49.3402 175.314 46.6539 172 46.6539V48.6539ZM176 52.6539V53.7859H178V52.6539H176ZM176.825 54.7704C180.335 55.3954 183 58.4645 183 62.1539H185C185 57.4782 181.623 53.5933 177.175 52.8014L176.825 54.7704ZM183 62.1539C183 65.8434 180.335 68.9125 176.825 69.5375L177.175 71.5065C181.623 70.7146 185 66.8297 185 62.1539H183ZM176 70.522V72.6539H178V70.522H176ZM176 72.6539C176 74.8631 174.209 76.6539 172 76.6539V78.6539C175.314 78.6539 178 75.9677 178 72.6539H176ZM172 76.6539H5V78.6539H172V76.6539ZM5 76.6539C2.79086 76.6539 1 74.8631 1 72.6539H-1C-1 75.9677 1.6863 78.6539 5 78.6539V76.6539ZM1 72.6539V69.6375H-1V72.6539H1ZM0.0656785 70.6354C4.49686 70.3437 8 66.6583 8 62.1539H6C6 65.5978 3.32118 68.4168 -0.0656785 68.6397L0.0656785 70.6354ZM8 62.1539C8 57.6495 4.49686 53.9642 0.0656785 53.6725L-0.0656785 55.6682C3.32118 55.8911 6 58.7101 6 62.1539H8ZM1 54.6703V52.6539H-1V54.6703H1ZM1 52.6539C1 50.4448 2.79086 48.6539 5 48.6539V46.6539C1.68629 46.6539 -1 49.3402 -1 52.6539H1ZM5 48.6539H128V46.6539H5V48.6539ZM127 16V47.6539H129V16H127ZM114 17H128V15H114V17Z" fill="#862D3C" mask="url(#path-1-inside-1_10_17)"/>
</svg>
