<?xml version="1.0" encoding="UTF-8"?><svg id="_イヤー_2" xmlns="http://www.w3.org/2000/svg" xmlns:xlink="http://www.w3.org/1999/xlink" viewBox="0 0 1297.11 218.18"><defs><style>.cls-1{fill:none;}.cls-2{fill:#9e3eff;}.cls-3{fill:#5f3fbf;}.cls-4{fill:url(#_規パターンスウォッチ_14);fill-rule:evenodd;stroke:#34237d;stroke-miterlimit:10;stroke-width:8px;}</style><pattern id="_規パターンスウォッチ_14" x="0" y="0" width="33.09" height="33.09" patternTransform="translate(-10611.78 -17385.74) rotate(-140)" patternUnits="userSpaceOnUse" viewBox="0 0 33.09 33.09"><g><rect class="cls-1" y="0" width="33.09" height="33.09"/><rect class="cls-2" y="0" width="33.09" height="33.09"/><circle class="cls-3" cx="16.54" cy="16.54" r="4.38"/></g></pattern></defs><g id="_イヤー_1-2"><path class="cls-4" d="M38.78,4h1018.48c6.03,0,11.96,1.57,17.21,4.55l110.35,62.82c12.95-18.41,36.06-29.16,61.18-24.08,23.17,4.69,41.6,23.4,46.01,46.62,7.21,38.01-21.74,71.22-58.44,71.22-17.94,0-34.03-7.94-44.95-20.49l-114.15,64.98c-5.24,2.98-11.17,4.55-17.21,4.55H38.78c-19.21,0-34.78-15.57-34.78-34.78v-21.38c27.39-1.8,49.04-24.59,49.04-52.43S31.39,54.96,4,53.16v-14.38C4,19.57,19.57,4,38.78,4Z"/></g></svg>