<svg width="27" height="30" viewBox="0 0 27 30" fill="none" xmlns="http://www.w3.org/2000/svg">
<mask id="path-1-inside-1_205_3" fill="white">
<path fill-rule="evenodd" clip-rule="evenodd" d="M5 0C2.23858 0 0 2.23858 0 5V25C0 27.7614 2.23858 30 5 30H15C17.7614 30 20 27.7614 20 25V22.522C23.979 21.8135 27 18.3365 27 14.1539C27 9.97135 23.979 6.49435 20 5.78588V5C20 2.23858 17.7614 0 15 0H5Z"/>
</mask>
<path fill-rule="evenodd" clip-rule="evenodd" d="M5 0C2.23858 0 0 2.23858 0 5V25C0 27.7614 2.23858 30 5 30H15C17.7614 30 20 27.7614 20 25V22.522C23.979 21.8135 27 18.3365 27 14.1539C27 9.97135 23.979 6.49435 20 5.78588V5C20 2.23858 17.7614 0 15 0H5Z" fill="#546E7A"/>
<path d="M20 22.522L19.8247 21.5375L19 21.6843V22.522H20ZM20 5.78588H19V6.62356L19.8247 6.7704L20 5.78588ZM1 5C1 2.79086 2.79086 1 5 1V-1C1.68629 -1 -1 1.68629 -1 5H1ZM1 25V5H-1V25H1ZM5 29C2.79086 29 1 27.2091 1 25H-1C-1 28.3137 1.68629 31 5 31V29ZM15 29H5V31H15V29ZM19 25C19 27.2091 17.2091 29 15 29V31C18.3137 31 21 28.3137 21 25H19ZM19 22.522V25H21V22.522H19ZM26 14.1539C26 17.8434 23.3349 20.9125 19.8247 21.5375L20.1753 23.5065C24.6231 22.7146 28 18.8297 28 14.1539H26ZM19.8247 6.7704C23.3349 7.39539 26 10.4645 26 14.1539H28C28 9.47824 24.6231 5.5933 20.1753 4.80136L19.8247 6.7704ZM19 5V5.78588H21V5H19ZM15 1C17.2091 1 19 2.79086 19 5H21C21 1.68629 18.3137 -1 15 -1V1ZM5 1H15V-1H5V1Z" fill="#455A64" mask="url(#path-1-inside-1_205_3)"/>
</svg>
