<svg width="20" height="30" viewBox="0 0 20 30" fill="none" xmlns="http://www.w3.org/2000/svg">
<mask id="path-1-inside-1_201_2" fill="white">
<path fill-rule="evenodd" clip-rule="evenodd" d="M5 0C2.23858 0 0 2.23858 0 5V7.0164C3.90902 7.2737 7 10.5259 7 14.5C7 18.4741 3.90902 21.7263 0 21.9836V25C0 27.7614 2.23858 30 5 30H15C17.7614 30 20 27.7614 20 25V5C20 2.23858 17.7614 0 15 0H5Z"/>
</mask>
<path fill-rule="evenodd" clip-rule="evenodd" d="M5 0C2.23858 0 0 2.23858 0 5V7.0164C3.90902 7.2737 7 10.5259 7 14.5C7 18.4741 3.90902 21.7263 0 21.9836V25C0 27.7614 2.23858 30 5 30H15C17.7614 30 20 27.7614 20 25V5C20 2.23858 17.7614 0 15 0H5Z" fill="#546E7A"/>
<path d="M0 7.0164H-1V7.95275L-0.0656783 8.01424L0 7.0164ZM0 21.9836L-0.0656785 20.9858L-1 21.0473V21.9836H0ZM1 5C1 2.79086 2.79086 1 5 1V-1C1.68629 -1 -1 1.68629 -1 5H1ZM1 7.0164V5H-1V7.0164H1ZM-0.0656783 8.01424C3.32118 8.23717 6 11.0562 6 14.5H8C8 9.9956 4.49686 6.31022 0.0656783 6.01856L-0.0656783 8.01424ZM6 14.5C6 17.9438 3.32118 20.7628 -0.0656785 20.9858L0.0656785 22.9814C4.49686 22.6898 8 19.0044 8 14.5H6ZM1 25V21.9836H-1V25H1ZM5 29C2.79086 29 1 27.2091 1 25H-1C-1 28.3137 1.68629 31 5 31V29ZM15 29H5V31H15V29ZM19 25C19 27.2091 17.2091 29 15 29V31C18.3137 31 21 28.3137 21 25H19ZM19 5V25H21V5H19ZM15 1C17.2091 1 19 2.79086 19 5H21C21 1.68629 18.3137 -1 15 -1V1ZM5 1H15V-1H5V1Z" fill="#455A64" mask="url(#path-1-inside-1_201_2)"/>
</svg>
