<svg width="885" height="313" viewBox="0 0 885 313" fill="none" xmlns="http://www.w3.org/2000/svg">
<path d="M814.75 263.75C801.75 263.75 801.75 284.75 814.75 284.75H884.75V200.75C884.75 187.75 863.75 187.75 863.75 200.75V263.75H814.75Z" fill="#9966FF"/>
<path d="M885 87.75C885 74.75 864 74.75 864 87.75V181.75C864 194.75 885 194.75 885 181.75V87.75Z" fill="#9966FF"/>
<path d="M853.005 169.75C866.016 169.75 866.005 190.75 853.005 190.75H804.005C804.005 190.75 803.994 119.75 804.005 106.75C804.016 93.75 825.016 93.75 825.005 106.75C824.994 119.75 825.005 169.75 825.005 169.75H853.005Z" fill="#9966FF"/>
<path d="M677 87.75C677 74.75 656 74.75 656 87.75V181.75C656 194.75 677 194.75 677 181.75V87.75Z" fill="#9966FF"/>
<path d="M687.754 119C674.743 119 674.754 98 687.754 98H736.754C736.754 98 736.766 169 736.754 182C736.743 195 715.743 195 715.754 182C715.766 169 715.754 119 715.754 119H687.754Z" fill="#9966FF"/>
<path d="M747.754 119C734.743 119 734.754 98 747.754 98H796.754C796.754 98 796.766 169 796.754 182C796.743 195 775.743 195 775.754 182C775.766 169 775.754 119 775.754 119H747.754Z" fill="#9966FF"/>
<path d="M576 121.75C576 108.75 555 108.75 555 121.75V191.75H639C652 191.75 652 170.75 639 170.75H576V121.75Z" fill="#9966FF"/>
<path d="M564.754 111C551.743 111 551.754 90 564.754 90H648.754C648.754 90 648.766 126 648.754 139C648.743 152 627.743 152 627.754 139C627.766 126 627.754 111 627.754 111H564.754Z" fill="#9966FF"/>
<circle cx="602" cy="141" r="15" fill="#FFD600"/>
<path d="M498.754 118C485.743 118 485.754 97 498.754 97H547.754C547.754 97 547.766 168 547.754 181C547.743 194 526.743 194 526.754 181C526.766 168 526.754 118 526.754 118H498.754Z" fill="#9966FF"/>
<path d="M476.5 176C462.5 165.444 462.5 154.889 476.5 144.333C490.5 133.778 490.5 123.222 476.5 112.667C462.5 102.111 462.5 91.5556 476.5 81C490.5 70.4444 490.5 59.8889 476.5 49.3333C462.5 38.7778 462.5 28.2222 476.5 17.6667C490.5 7.11112 482.5 3 481.5 2" stroke="#9966FF" stroke-width="4"/>
<path d="M476.5 18C490.5 28.5556 490.5 39.1111 476.5 49.6667C462.5 60.2222 462.5 70.7778 476.5 81.3333C490.5 91.8889 490.5 102.444 476.5 113C462.5 123.556 462.5 134.111 476.5 144.667C490.5 155.222 490.5 165.778 476.5 176.333C462.5 186.889 470.5 191 471.5 192" stroke="#9966FF" stroke-width="2"/>
<path d="M388 121.75C388 108.75 367 108.75 367 121.75V191.75H451C464 191.75 464 170.75 451 170.75H388V121.75Z" fill="#9966FF"/>
<path d="M376.754 111C363.743 111 363.754 90 376.754 90H460.754C460.754 90 460.766 126 460.754 139C460.743 152 439.743 152 439.754 139C439.766 126 439.754 111 439.754 111H376.754Z" fill="#9966FF"/>
<path d="M338.75 160C338.75 173 359.75 173 359.75 160V90.0001L275.75 90.0001C262.75 90.0002 262.75 111 275.75 111H338.75V160Z" fill="#9966FF"/>
<path d="M287 121.75C287 108.75 266 108.75 266 121.75V191.75H350C363 191.75 363 170.75 350 170.75H287V121.75Z" fill="#9966FF"/>
<path d="M199 88.75C199 75.75 178 75.75 178 88.75V182.75C178 195.75 199 195.75 199 182.75V88.75Z" fill="#9966FF"/>
<path d="M209.754 119C196.743 119 196.754 98 209.754 98H258.754C258.754 98 258.766 169 258.754 182C258.743 195 237.743 195 237.754 182C237.766 169 237.754 119 237.754 119H209.754Z" fill="#9966FF"/>
<path d="M98 121.75C98 108.75 77 108.75 77 121.75V191.75H161C174 191.75 174 170.75 161 170.75H98V121.75Z" fill="#9966FF"/>
<path d="M86.7542 111C73.7429 111 73.7542 90 86.7542 90H170.754C170.754 90 170.766 126 170.754 139C170.743 152 149.743 152 149.754 139C149.766 126 149.754 111 149.754 111H86.7542Z" fill="#9966FF"/>
<circle cx="124" cy="141" r="15" fill="#FDD835"/>
<rect y="1" width="70" height="200" rx="35" fill="#9966FF"/>
<path d="M41.267 199C41.267 199 43.267 203 41.267 208.5C39.267 214 27.8249 229.542 41.267 247C62.2779 277.626 60.1892 291.484 40.767 306.5C34.5637 311.139 30.9753 311.495 24.267 306.5C18.3662 302.105 9.98865 274.662 14.0894 268" stroke="#444444" stroke-width="4"/>
</svg>
