<svg width="184" height="83" viewBox="0 0 184 83" fill="none" xmlns="http://www.w3.org/2000/svg">
<mask id="path-1-inside-1_2_36" fill="white">
<path fill-rule="evenodd" clip-rule="evenodd" d="M173.525 10.9248C174.848 12.1164 174.848 14.1915 173.525 15.3831L162.258 25.5312C160.327 27.2697 157.25 25.8999 157.25 23.302V21.654H144V52.654H172C174.761 52.654 177 54.8925 177 57.654V58.7859C180.979 59.4944 184 62.9714 184 67.154C184 71.3366 180.979 74.8136 177 75.522V77.654C177 80.4154 174.761 82.654 172 82.654H5C2.23858 82.654 0 80.4154 0 77.654V74.6376C3.90902 74.3803 7 71.1281 7 67.154C7 63.1798 3.90902 59.9277 0 59.6704V57.654C0 54.8925 2.23858 52.654 5 52.654H128V16.654V10.654C128 7.89254 130.239 5.65395 133 5.65395H139H157.25V3.00588C157.25 0.408044 160.327 -0.961829 162.258 0.776757L173.525 10.9248Z"/>
</mask>
<path fill-rule="evenodd" clip-rule="evenodd" d="M173.525 10.9248C174.848 12.1164 174.848 14.1915 173.525 15.3831L162.258 25.5312C160.327 27.2697 157.25 25.8999 157.25 23.302V21.654H144V52.654H172C174.761 52.654 177 54.8925 177 57.654V58.7859C180.979 59.4944 184 62.9714 184 67.154C184 71.3366 180.979 74.8136 177 75.522V77.654C177 80.4154 174.761 82.654 172 82.654H5C2.23858 82.654 0 80.4154 0 77.654V74.6376C3.90902 74.3803 7 71.1281 7 67.154C7 63.1798 3.90902 59.9277 0 59.6704V57.654C0 54.8925 2.23858 52.654 5 52.654H128V16.654V10.654C128 7.89254 130.239 5.65395 133 5.65395H139H157.25V3.00588C157.25 0.408044 160.327 -0.961829 162.258 0.776757L173.525 10.9248Z" fill="#4C97FF"/>
<path d="M173.525 15.3831L172.856 14.6401L172.856 14.6401L173.525 15.3831ZM173.525 10.9248L174.194 10.1818L174.194 10.1817L173.525 10.9248ZM162.258 25.5312L162.927 26.2742L162.927 26.2742L162.258 25.5312ZM157.25 21.654H158.25V20.654H157.25V21.654ZM144 21.654V20.654H143V21.654H144ZM144 52.654H143V53.654H144V52.654ZM177 58.7859H176V59.6236L176.825 59.7704L177 58.7859ZM177 75.522L176.825 74.5375L176 74.6843V75.522H177ZM0 74.6376L-0.0656785 73.6397L-1 73.7012V74.6376H0ZM0 59.6704H-1V60.6067L-0.0656785 60.6682L0 59.6704ZM128 52.654V53.654H129V52.654H128ZM157.25 5.65395V6.65395H158.25V5.65395H157.25ZM162.258 0.776757L161.588 1.5198L161.588 1.51981L162.258 0.776757ZM174.194 16.1262C175.958 14.5373 175.958 11.7706 174.194 10.1818L172.856 11.6678C173.738 12.4623 173.738 13.8457 172.856 14.6401L174.194 16.1262ZM162.927 26.2742L174.194 16.1262L172.856 14.6401L161.588 24.7881L162.927 26.2742ZM156.25 23.302C156.25 26.7658 160.353 28.5923 162.927 26.2742L161.588 24.7881C160.302 25.9472 158.25 25.0339 158.25 23.302H156.25ZM156.25 21.654V23.302H158.25V21.654H156.25ZM144 22.654H157.25V20.654H144V22.654ZM145 52.654V21.654H143V52.654H145ZM144 53.654H172V51.654H144V53.654ZM172 53.654C174.209 53.654 176 55.4448 176 57.654H178C178 54.3402 175.314 51.654 172 51.654V53.654ZM176 57.654V58.7859H178V57.654H176ZM176.825 59.7704C180.335 60.3954 183 63.4645 183 67.154H185C185 62.4783 181.623 58.5933 177.175 57.8014L176.825 59.7704ZM183 67.154C183 70.8434 180.335 73.9125 176.825 74.5375L177.175 76.5065C181.623 75.7146 185 71.8297 185 67.154H183ZM176 75.522V77.654H178V75.522H176ZM176 77.654C176 79.8631 174.209 81.654 172 81.654V83.654C175.314 83.654 178 80.9677 178 77.654H176ZM172 81.654H5V83.654H172V81.654ZM5 81.654C2.79086 81.654 1 79.8631 1 77.654H-1C-1 80.9677 1.6863 83.654 5 83.654V81.654ZM1 77.654V74.6376H-1V77.654H1ZM0.0656785 75.6354C4.49686 75.3437 8 71.6584 8 67.154H6C6 70.5978 3.32118 73.4168 -0.0656785 73.6397L0.0656785 75.6354ZM8 67.154C8 62.6496 4.49686 58.9642 0.0656785 58.6725L-0.0656785 60.6682C3.32118 60.8911 6 63.7101 6 67.154H8ZM1 59.6704V57.654H-1V59.6704H1ZM1 57.654C1 55.4448 2.79086 53.654 5 53.654V51.654C1.68629 51.654 -1 54.3403 -1 57.654H1ZM5 53.654H128V51.654H5V53.654ZM127 16.654V52.654H129V16.654H127ZM127 10.654V16.654H129V10.654H127ZM133 4.65395C129.686 4.65395 127 7.34026 127 10.654H129C129 8.44482 130.791 6.65395 133 6.65395V4.65395ZM139 4.65395H133V6.65395H139V4.65395ZM157.25 4.65395H139V6.65395H157.25V4.65395ZM156.25 3.00588V5.65395H158.25V3.00588H156.25ZM162.927 0.0337126C160.353 -2.2844 156.25 -0.457906 156.25 3.00588H158.25C158.25 1.27399 160.302 0.360743 161.588 1.5198L162.927 0.0337126ZM174.194 10.1817L162.927 0.0337083L161.588 1.51981L172.856 11.6678L174.194 10.1817Z" fill="#1D4071" mask="url(#path-1-inside-1_2_36)"/>
</svg>
