<?xml version="1.0" encoding="UTF-8" standalone="no"?><svg xmlns:svg="http://www.w3.org/2000/svg" xmlns="http://www.w3.org/2000/svg" version="1.1" style="overflow:visible" viewBox="-250 -250 500 500" height="500px" width="500px"><rect fill-opacity="0" fill="rgb(0,0,0)" height="500" width="500" y="-250" x="-250" /><svg version="1.1" y="-250" x="-250" viewBox="-250 -250 500 500" height="500px" width="500px" style="overflow:visible"><g transform="rotate(0,0,0)" stroke-linejoin="round" fill="#fff"><path stroke-linecap="butt" stroke-linejoin="round" stroke="none" fill="rgb(255,255,255)" d="m0-195c22.8802 0 41.3 18.2421 41.3 40.9016v121.303c0 22.6595-18.4198 40.9016-41.3 40.9016c-22.8802 0-41.3-18.2421-41.3-40.9016v-121.303c0-22.6595 18.4198-40.9016 41.3-40.9016z" /><path stroke-linecap="butt" stroke-linejoin="round" stroke="none" fill="rgb(221,221,221)" d="m0-182.0901c-15.7626 0-28.1524 12.201-28.1524 27.9914v121.304c0 15.7904 12.3897 27.9914 28.1524 27.9914c15.7627 0 28.1523-12.201 28.1523-27.9914v-121.304c0-15.7904-12.3897-27.9914-28.1523-27.9914z" /><path stroke-linecap="butt" stroke-linejoin="round" stroke-width="10" stroke-opacity="1" stroke="rgb(68,68,68)" fill="none" d="m0-195c22.8802 0 41.3 18.2421 41.3 40.9016v121.303c0 22.6595-18.4198 40.9016-41.3 40.9016c-22.8802 0-41.3-18.2421-41.3-40.9016v-121.303c0-22.6595 18.4198-40.9016 41.3-40.9016z" /><path stroke-linecap="round" stroke-linejoin="round" stroke-width="10" stroke-opacity="1" stroke="rgb(68,68,68)" fill="none" d="m0 194.952c8.5971-7.77244 17.1942-15.5461 17.1942-29.4091c0-27.726-34.3884-31.0897-34.3884-58.8157c0-27.7261 34.3884-31.0922 34.3884-58.8183c0-13.863-8.59724-28.5647-17.1942-39.8029" /></g></svg></svg>