<svg width="338" height="1410" xmlns="http://www.w3.org/2000/svg" xmlns:xlink="http://www.w3.org/1999/xlink" xml:space="preserve" overflow="hidden"><defs><clipPath id="clip0"><rect x="2701" y="567" width="338" height="1410"/></clipPath></defs><g clip-path="url(#clip0)" transform="translate(-2701 -567)"><path d="M0 0 101.227 99.2025" stroke="#444444" stroke-width="27.5" stroke-miterlimit="8" fill="none" fill-rule="evenodd" transform="matrix(-1 0 0 1 2816.23 634)"/><path d="M2897 577 2998.23 692.399" stroke="#444444" stroke-width="27.5" stroke-miterlimit="8" fill="none" fill-rule="evenodd"/><path d="M2879 919 2980.23 1034.4" stroke="#444444" stroke-width="27.5" stroke-miterlimit="8" fill="none" fill-rule="evenodd"/><path d="M2788 773 2788 918.767" stroke="#444444" stroke-width="27.5" stroke-miterlimit="8" fill="none" fill-rule="evenodd"/><path d="M2895 818 3024.57 866.59" stroke="#444444" stroke-width="27.5" stroke-miterlimit="8" fill="none" fill-rule="evenodd"/><path d="M0 0 117.423 83.0067" stroke="#444444" stroke-width="27.5" stroke-miterlimit="8" fill="none" fill-rule="evenodd" transform="matrix(-1 0 0 1 2850.42 988)"/><path d="M2770 1116 2871.23 1231.4" stroke="#444444" stroke-width="27.5" stroke-miterlimit="8" fill="none" fill-rule="evenodd"/><path d="M2970.49 1212.55 2930 1085" stroke="#444444" stroke-width="27.5" stroke-miterlimit="8" fill="none" fill-rule="evenodd"/><path d="M2853 1265 2925.88 1412.79" stroke="#444444" stroke-width="27.5" stroke-miterlimit="8" fill="none" fill-rule="evenodd"/><path d="M2834 1567 2906.88 1714.79" stroke="#444444" stroke-width="27.5" stroke-miterlimit="8" fill="none" fill-rule="evenodd"/><path d="M0 0 117.423 83.0067" stroke="#444444" stroke-width="27.5" stroke-miterlimit="8" fill="none" fill-rule="evenodd" transform="matrix(-1 0 0 1 2889.42 1425)"/><path d="M2844 1729 2916.88 1876.79" stroke="#444444" stroke-width="27.5" stroke-miterlimit="8" fill="none" fill-rule="evenodd"/><path d="M0 0 117.423 83.0067" stroke="#444444" stroke-width="27.5" stroke-miterlimit="8" fill="none" fill-rule="evenodd" transform="matrix(-1 0 0 1 2848.42 1879)"/></g></svg>