<svg width="171" height="245" xmlns="http://www.w3.org/2000/svg" xmlns:xlink="http://www.w3.org/1999/xlink" xml:space="preserve" overflow="hidden"><defs><clipPath id="clip0"><rect x="1669" y="993" width="171" height="245"/></clipPath></defs><g clip-path="url(#clip0)" transform="translate(-1669 -993)"><path d="M1682 1081.5 1693.15 1032.54 1734.7 1005 1778.28 1006.02 1816.79 1027.44 1833 1060.08 1829.96 1100.88 1803.61 1132.5 1790.44 1158 1711.39 1153.92 1689.09 1109.04 1682 1081.5Z" fill="#7F7F7F" fill-rule="evenodd"/><path d="M1784.09 1185 1724.91 1185C1719.44 1185 1715 1189.25 1715 1194.5 1715 1199.75 1719.44 1204 1724.91 1204L1784.09 1204C1789.56 1204 1794 1199.75 1794 1194.5 1794 1189.25 1789.56 1185 1784.09 1185Z" fill-rule="evenodd"/><path d="M1754.5 1238C1765.76 1238 1775.12 1229.29 1776 1218L1733 1218C1733.88 1229.29 1743.25 1238 1754.5 1238Z" fill-rule="evenodd"/><path d="M1840 1080.68 1840 1077.72C1839.15 1030.9 1801.21 993.314 1754.51 993L1754.51 993C1707.8 993.311 1669.85 1030.9 1669 1077.72L1669 1080.68C1669.32 1090.83 1671.33 1100.86 1674.95 1110.35 1678.42 1119.3 1683.45 1127.56 1689.81 1134.74 1697.64 1143.32 1706.22 1159.96 1709.84 1167.34 1710.95 1169.58 1713.23 1171 1715.73 1171L1793.27 1171C1795.77 1171 1798.05 1169.58 1799.16 1167.34 1802.78 1159.96 1811.36 1143.32 1819.19 1134.74 1825.55 1127.56 1830.58 1119.3 1834.05 1110.35 1837.67 1100.86 1839.68 1090.83 1840 1080.68ZM1820.27 1080.34C1819.97 1088.24 1818.38 1096.04 1815.56 1103.42 1812.95 1110.07 1809.19 1116.21 1804.44 1121.55 1796.91 1130.66 1790.45 1140.61 1785.21 1151.21L1723.78 1151.21C1718.54 1140.61 1712.08 1130.66 1704.55 1121.55 1699.8 1116.21 1696.04 1110.07 1693.43 1103.42 1690.61 1096.04 1689.02 1088.24 1688.73 1080.34L1688.73 1077.87C1689.39 1041.88 1718.58 1012.99 1754.5 1012.78L1754.5 1012.78C1790.42 1012.99 1819.61 1041.88 1820.26 1077.88Z" fill-rule="evenodd"/></g></svg>