<svg width="274" height="297" xmlns="http://www.w3.org/2000/svg" xmlns:xlink="http://www.w3.org/1999/xlink" xml:space="preserve" overflow="hidden"><defs><clipPath id="clip0"><rect x="675" y="941" width="274" height="297"/></clipPath></defs><g clip-path="url(#clip0)" transform="translate(-675 -941)"><path d="M737 1081.5 748.222 1032.54 790.047 1005 833.913 1006.02 872.678 1027.44 889 1060.08 885.94 1100.88 859.416 1132.5 846.154 1158 766.584 1153.92 744.141 1109.04 737 1081.5Z" fill="#FF0000" fill-rule="evenodd"/><path d="M842.091 1185 782.91 1185C777.437 1185 773 1189.25 773 1194.5 773 1199.75 777.437 1204 782.91 1204L842.091 1204C847.564 1204 852.001 1199.75 852.001 1194.5 852.001 1189.25 847.564 1185 842.091 1185Z" fill-rule="evenodd"/><path d="M812.502 1238C823.757 1238 833.118 1229.29 834 1218L791 1218C791.882 1229.29 801.246 1238 812.502 1238Z" fill-rule="evenodd"/><path d="M898 1080.68 898 1077.72C897.147 1030.9 859.211 993.314 812.505 993L812.505 993C765.796 993.311 727.855 1030.9 727 1077.72L727 1080.68C727.319 1090.83 729.332 1100.86 732.953 1110.35 736.419 1119.3 741.452 1127.56 747.815 1134.74 755.641 1143.32 764.224 1159.96 767.842 1167.34 768.951 1169.58 771.232 1171 773.727 1171L851.273 1171C853.769 1171 856.05 1169.58 857.161 1167.34 860.776 1159.96 869.359 1143.32 877.185 1134.74 883.548 1127.56 888.581 1119.3 892.046 1110.35 895.667 1100.86 897.679 1090.83 898 1080.68ZM878.271 1080.34C877.973 1088.24 876.382 1096.04 873.56 1103.42 870.951 1110.07 867.187 1116.21 862.444 1121.55 854.906 1130.66 848.451 1140.61 843.207 1151.21L781.783 1151.21C776.54 1140.61 770.084 1130.66 762.546 1121.55 757.802 1116.21 754.039 1110.07 751.434 1103.42 748.613 1096.04 747.024 1088.24 746.73 1080.34L746.73 1077.87C747.394 1041.88 776.584 1012.99 812.498 1012.78L812.498 1012.78C848.416 1012.99 877.606 1041.88 878.264 1077.88Z" fill-rule="evenodd"/><path d="M813 979C816.866 979 820 975.907 820 972.091L820 947.909C820 944.093 816.866 941 813 941 809.134 941 806 944.093 806 947.909L806 972.091C806 975.907 809.134 979 813 979Z" fill-rule="evenodd"/><path d="M731.479 1008.95C734.05 1011.62 738.292 1011.69 740.954 1009.12 743.616 1006.55 743.69 1002.31 741.119 999.644 741.065 999.588 741.01 999.533 740.954 999.479L724.356 982.881C721.694 980.31 717.452 980.384 714.881 983.046 712.373 985.643 712.373 989.76 714.881 992.356Z" fill-rule="evenodd"/><path d="M889.96 1013C891.808 1013 893.581 1012.27 894.888 1010.96L912.14 993.709C914.758 990.888 914.593 986.478 911.77 983.86 909.094 981.378 904.955 981.38 902.282 983.866L885.041 1001.1C882.319 1003.83 882.32 1008.24 885.043 1010.96 886.35 1012.27 888.122 1013 889.97 1013Z" fill-rule="evenodd"/><path d="M706.091 1070 681.909 1070C678.093 1070 675 1073.13 675 1077 675 1080.87 678.093 1084 681.909 1084L706.091 1084C709.907 1084 713 1080.87 713 1077 713 1073.13 709.907 1070 706.091 1070Z" fill-rule="evenodd"/><path d="M731.211 1144.1 714.219 1161.08C711.428 1163.65 711.245 1167.99 713.811 1170.78 716.376 1173.57 720.719 1173.76 723.51 1171.19 723.65 1171.06 723.785 1170.93 723.913 1170.79L740.904 1153.8C743.631 1151.17 743.707 1146.82 741.073 1144.1 738.439 1141.37 734.093 1141.29 731.366 1143.93 731.308 1143.98 731.252 1144.04 731.197 1144.1Z" fill-rule="evenodd"/><path d="M894.963 1143.2C892.366 1140.41 887.997 1140.25 885.203 1142.85 882.411 1145.45 882.251 1149.82 884.849 1152.61 884.964 1152.73 885.084 1152.85 885.209 1152.97L902.297 1170.06C905.04 1172.71 909.412 1172.64 912.061 1169.89 914.646 1167.21 914.646 1162.97 912.061 1160.29Z" fill-rule="evenodd"/><path d="M942.273 1070 918.727 1070C915.012 1070 912 1073.13 912 1077 912 1080.87 915.012 1084 918.727 1084L942.273 1084C945.988 1084 949 1080.87 949 1077 949 1073.13 945.988 1070 942.273 1070Z" fill-rule="evenodd"/></g></svg>