<svg width="275" height="297" xmlns="http://www.w3.org/2000/svg" xmlns:xlink="http://www.w3.org/1999/xlink" xml:space="preserve" overflow="hidden"><defs><clipPath id="clip0"><rect x="927" y="941" width="275" height="297"/></clipPath></defs><g clip-path="url(#clip0)" transform="translate(-927 -941)"><path d="M989 1081.5 1000.22 1032.54 1042.05 1005 1085.91 1006.02 1124.68 1027.44 1141 1060.08 1137.94 1100.88 1111.42 1132.5 1098.15 1158 1018.58 1153.92 996.141 1109.04 989 1081.5Z" fill="#00B0F0" fill-rule="evenodd"/><path d="M1094.09 1185 1034.91 1185C1029.44 1185 1025 1189.25 1025 1194.5 1025 1199.75 1029.44 1204 1034.91 1204L1094.09 1204C1099.56 1204 1104 1199.75 1104 1194.5 1104 1189.25 1099.56 1185 1094.09 1185Z" fill-rule="evenodd"/><path d="M1064.5 1238C1075.76 1238 1085.12 1229.29 1086 1218L1043 1218C1043.88 1229.29 1053.25 1238 1064.5 1238Z" fill-rule="evenodd"/><path d="M1150 1080.68 1150 1077.72C1149.15 1030.9 1111.21 993.314 1064.5 993L1064.5 993C1017.8 993.311 979.855 1030.9 979 1077.72L979 1080.68C979.319 1090.83 981.332 1100.86 984.953 1110.35 988.419 1119.3 993.452 1127.56 999.815 1134.74 1007.64 1143.32 1016.22 1159.96 1019.84 1167.34 1020.95 1169.58 1023.23 1171 1025.73 1171L1103.27 1171C1105.77 1171 1108.05 1169.58 1109.16 1167.34 1112.78 1159.96 1121.36 1143.32 1129.19 1134.74 1135.55 1127.56 1140.58 1119.3 1144.05 1110.35 1147.67 1100.86 1149.68 1090.83 1150 1080.68ZM1130.27 1080.34C1129.97 1088.24 1128.38 1096.04 1125.56 1103.42 1122.95 1110.07 1119.19 1116.21 1114.44 1121.55 1106.91 1130.66 1100.45 1140.61 1095.21 1151.21L1033.78 1151.21C1028.54 1140.61 1022.08 1130.66 1014.55 1121.55 1009.8 1116.21 1006.04 1110.07 1003.43 1103.42 1000.61 1096.04 999.024 1088.24 998.73 1080.34L998.73 1077.87C999.394 1041.88 1028.58 1012.99 1064.5 1012.78L1064.5 1012.78C1100.42 1012.99 1129.61 1041.88 1130.26 1077.88Z" fill-rule="evenodd"/><path d="M1065 979C1068.87 979 1072 975.907 1072 972.091L1072 947.909C1072 944.093 1068.87 941 1065 941 1061.13 941 1058 944.093 1058 947.909L1058 972.091C1058 975.907 1061.13 979 1065 979Z" fill-rule="evenodd"/><path d="M983.479 1008.95C986.05 1011.62 990.293 1011.69 992.954 1009.12 995.616 1006.55 995.69 1002.31 993.119 999.644 993.065 999.588 993.01 999.533 992.954 999.479L976.356 982.881C973.694 980.31 969.452 980.384 966.881 983.046 964.373 985.643 964.373 989.76 966.881 992.356Z" fill-rule="evenodd"/><path d="M1141.96 1013C1143.81 1013 1145.58 1012.27 1146.89 1010.96L1164.14 993.709C1166.76 990.888 1166.59 986.478 1163.77 983.86 1161.09 981.378 1156.96 981.38 1154.28 983.866L1137.04 1001.1C1134.32 1003.83 1134.32 1008.24 1137.04 1010.96 1138.35 1012.27 1140.12 1013 1141.97 1013Z" fill-rule="evenodd"/><path d="M958.091 1070 933.909 1070C930.093 1070 927 1073.13 927 1077 927 1080.87 930.093 1084 933.909 1084L958.091 1084C961.907 1084 965 1080.87 965 1077 965 1073.13 961.907 1070 958.091 1070Z" fill-rule="evenodd"/><path d="M983.211 1144.1 966.219 1161.08C963.428 1163.65 963.245 1167.99 965.811 1170.78 968.376 1173.57 972.719 1173.76 975.511 1171.19 975.651 1171.06 975.785 1170.93 975.913 1170.79L992.905 1153.8C995.632 1151.17 995.707 1146.82 993.073 1144.1 990.439 1141.37 986.093 1141.29 983.366 1143.93 983.308 1143.98 983.252 1144.04 983.197 1144.1Z" fill-rule="evenodd"/><path d="M1146.96 1143.2C1144.37 1140.41 1140 1140.25 1137.2 1142.85 1134.41 1145.45 1134.25 1149.82 1136.85 1152.61 1136.96 1152.73 1137.08 1152.85 1137.21 1152.97L1154.3 1170.06C1157.04 1172.71 1161.41 1172.64 1164.06 1169.89 1166.65 1167.21 1166.65 1162.97 1164.06 1160.29Z" fill-rule="evenodd"/><path d="M1195.09 1070 1170.91 1070C1167.09 1070 1164 1073.13 1164 1077 1164 1080.87 1167.09 1084 1170.91 1084L1195.09 1084C1198.91 1084 1202 1080.87 1202 1077 1202 1073.13 1198.91 1070 1195.09 1070Z" fill-rule="evenodd"/></g></svg>