<svg width="184" height="30" viewBox="0 0 184 30" fill="none" xmlns="http://www.w3.org/2000/svg">
<mask id="path-1-inside-1_2_19" fill="white">
<path fill-rule="evenodd" clip-rule="evenodd" d="M0 5C0 2.23858 2.23858 0 5 0H172C174.761 0 177 2.23858 177 5V6.13193C180.979 6.8404 184 10.3174 184 14.5C184 18.6826 180.979 22.1596 177 22.8681V25C177 27.7614 174.761 30 172 30H5C2.23858 30 0 27.7614 0 25V21.9836C3.90902 21.7263 7 18.4741 7 14.5C7 10.5259 3.90902 7.2737 0 7.0164V5Z"/>
</mask>
<path fill-rule="evenodd" clip-rule="evenodd" d="M0 5C0 2.23858 2.23858 0 5 0H172C174.761 0 177 2.23858 177 5V6.13193C180.979 6.8404 184 10.3174 184 14.5C184 18.6826 180.979 22.1596 177 22.8681V25C177 27.7614 174.761 30 172 30H5C2.23858 30 0 27.7614 0 25V21.9836C3.90902 21.7263 7 18.4741 7 14.5C7 10.5259 3.90902 7.2737 0 7.0164V5Z" fill="#9966FF"/>
<path d="M177 6.13193H176V6.96961L176.825 7.11645L177 6.13193ZM177 22.8681L176.825 21.8836L176 22.0304V22.8681H177ZM0 21.9836L-0.0656785 20.9858L-1 21.0473V21.9836H0ZM0 7.0164H-1V7.95275L-0.0656783 8.01424L0 7.0164ZM5 -1C1.68629 -1 -1 1.68629 -1 5H1C1 2.79086 2.79086 1 5 1V-1ZM172 -1H5V1H172V-1ZM178 5C178 1.68629 175.314 -1 172 -1V1C174.209 1 176 2.79086 176 5H178ZM178 6.13193V5H176V6.13193H178ZM176.825 7.11645C180.335 7.74145 183 10.8105 183 14.5H185C185 9.82429 181.623 5.93935 177.175 5.14742L176.825 7.11645ZM183 14.5C183 18.1895 180.335 21.2586 176.825 21.8836L177.175 23.8526C181.623 23.0606 185 19.1757 185 14.5H183ZM178 25V22.8681H176V25H178ZM172 31C175.314 31 178 28.3137 178 25H176C176 27.2091 174.209 29 172 29V31ZM5 31H172V29H5V31ZM-1 25C-1 28.3137 1.6863 31 5 31V29C2.79086 29 1 27.2091 1 25H-1ZM-1 21.9836V25H1V21.9836H-1ZM6 14.5C6 17.9438 3.32118 20.7628 -0.0656785 20.9858L0.0656785 22.9814C4.49686 22.6898 8 19.0044 8 14.5H6ZM-0.0656783 8.01424C3.32118 8.23717 6 11.0562 6 14.5H8C8 9.9956 4.49686 6.31022 0.0656783 6.01856L-0.0656783 8.01424ZM-1 5V7.0164H1V5H-1Z" fill="#1D4071" mask="url(#path-1-inside-1_2_19)"/>
</svg>
